<svg xmlns="http://www.w3.org/2000/svg" x="0px" y="0px" width="100" height="100" viewBox="0,0,255.99887,255.99887">
<g fill="rgb(14, 75, 122)" fill-rule="nonzero" stroke="none" stroke-width="1" stroke-linecap="butt" stroke-linejoin="miter" stroke-miterlimit="10" stroke-dasharray="" stroke-dashoffset="0" font-family="none" font-weight="none" font-size="none" text-anchor="none" style="mix-blend-mode: normal"><g transform="scale(2.56,2.56)"><path d="M30,17c-7.168,0 -13,5.832 -13,13v39c0,7.168 5.832,13 13,13h39c7.168,0 13,-5.832 13,-13v-39c0,-7.168 -5.832,-13 -13,-13zM30,19h39c6.065,0 11,4.935 11,11v39c0,6.065 -4.935,11 -11,11h-39c-6.065,0 -11,-4.935 -11,-11v-39c0,-6.065 4.935,-11 11,-11zM32.83789,22c-5.976,0 -10.83789,4.86189 -10.83789,10.83789v33.32617c0,5.976 4.86189,10.83594 10.83789,10.83594h33.32422c5.976,0 10.83789,-4.86094 10.83789,-10.83594v-18.66211c0,-0.276 -0.224,-0.5 -0.5,-0.5c-0.276,0 -0.5,0.224 -0.5,0.5v18.66211c0,5.424 -4.41389,9.83594 -9.83789,9.83594h-33.32422c-5.424,0 -9.83789,-4.41194 -9.83789,-9.83594v-33.32617c0,-5.424 4.41389,-9.83789 9.83789,-9.83789h33.66211c0.276,0 0.5,-0.224 0.5,-0.5c0,-0.276 -0.224,-0.5 -0.5,-0.5zM49.34375,29.5c-10.942,0 -19.84375,8.636 -19.84375,19.25c0,10.614 8.90175,19.25 19.84375,19.25c2.903,0 5.71891,-0.61322 8.37891,-1.82422l1.90234,2.1543c0.095,0.107 0.231,0.16992 0.375,0.16992h10c0.2,0 0.37998,-0.11873 0.45898,-0.30273c0.079,-0.183 0.0413,-0.39502 -0.0957,-0.54102l-6,-6.375c3.113,-3.505 4.82227,-7.93525 4.82227,-12.53125c0,-10.614 -8.9008,-19.25 -19.8418,-19.25zM49.34375,30.5c10.389,0 18.8418,8.187 18.8418,18.25c0,4.494 -1.72819,8.82627 -4.86719,12.19727c-0.18,0.193 -0.18,0.49259 0,0.68359l5.52539,5.86914h-8.61719l-2.00195,-2.26758c-0.147,-0.167 -0.38784,-0.21909 -0.58984,-0.12109c-2.625,1.253 -5.41302,1.88867 -8.29102,1.88867c-10.39,0 -18.8418,-8.187 -18.8418,-18.25c0,-10.063 8.4518,-18.25 18.8418,-18.25zM76.5,37.00195c-0.276,0 -0.5,0.224 -0.5,0.5v2c0,0.276 0.224,0.5 0.5,0.5c0.276,0 0.5,-0.224 0.5,-0.5v-2c0,-0.276 -0.224,-0.5 -0.5,-0.5zM49.34375,37.5c-6.53,0 -11.84375,5.047 -11.84375,11.25c0,6.203 5.31375,11.25 11.84375,11.25c0.966,0 1.96194,-0.12409 2.96094,-0.37109c0.17,-0.041 0.30542,-0.16894 0.35742,-0.33594c0.052,-0.167 0.01444,-0.34847 -0.10156,-0.48047l-6.45312,-7.3125h7.67578l4.04492,4.29883c0.098,0.103 0.22895,0.16025 0.37695,0.15625c0.143,-0.004 0.27714,-0.06973 0.36914,-0.17773c1.708,-2.02 2.61133,-4.44934 2.61133,-7.02734c0,-6.203 -5.3118,-11.25 -11.8418,-11.25zM49.34375,38.5c5.978,0 10.8418,4.598 10.8418,10.25c0,2.155 -0.69844,4.19836 -2.02344,5.94336l-3.79883,-4.03711c-0.094,-0.1 -0.22528,-0.15625 -0.36328,-0.15625h-9c-0.197,0 -0.37408,0.11592 -0.45508,0.29492c-0.081,0.18 -0.04992,0.38816 0.08008,0.53516l6.61719,7.50195c-0.642,0.111 -1.27644,0.16797 -1.89844,0.16797c-5.979,0 -10.84375,-4.598 -10.84375,-10.25c0,-5.652 4.86475,-10.25 10.84375,-10.25zM76.5,41.00195c-0.276,0 -0.5,0.224 -0.5,0.5v4c0,0.276 0.224,0.5 0.5,0.5c0.276,0 0.5,-0.224 0.5,-0.5v-4c0,-0.276 -0.224,-0.5 -0.5,-0.5z"></path></g></g>
</svg>