<svg width="481.2491943359375px" height="114.7136474609375px" xmlns="http://www.w3.org/2000/svg" viewBox="9.375402832031256 17.643176269531253 481.2491943359375 114.7136474609375" style="background: rgb(255, 255, 255);" preserveAspectRatio="xMidYMid"><defs><linearGradient id="editing-shadow-gradient1" x1="0" x2="0" y1="0" y2="1"><stop offset="0" stop-color="#48e3e3" stop-opacity="0"></stop><stop offset="0.2" stop-color="#48e3e3" stop-opacity="0"></stop><stop offset="1" stop-color="#48e3e3" stop-opacity="1"></stop></linearGradient><linearGradient id="editing-shadow-gradient2" x1="-0.2547095802227721" x2="1.2547095802227721" y1="-0.15605902899050716" y2="1.1560590289905073"><stop offset="0" stop-color="#ffffff"></stop><stop offset="1" stop-color="#169ded"></stop></linearGradient><filter id="editing-shadow" x="-100%" y="-100%" width="300%" height="300%"><feGaussianBlur stdDeviation="0"></feGaussianBlur><feComposite operator="in" in2="SourceGraphic"></feComposite><feGaussianBlur stdDeviation="0"></feGaussianBlur></filter></defs><g transform="translate(250,75)"><g transform="translate(-9.5, 10)"><g transform="skewX(45)"><g filter="url(#editing-shadow)"><g transform="translate(-135.45000791549683, 27.270000457763672)"><path d="M2.52-37.20L2.52-37.20L2.52-37.20Q3.36-38.88 5.19-39.81L5.19-39.81L5.19-39.81Q7.02-40.74 9.54-40.74L9.54-40.74L9.54-40.74Q13.50-40.74 15.87-37.89L15.87-37.89L15.87-37.89Q18.24-35.04 18.24-28.80L18.24-28.80L18.24-7.38L31.98-39.54L39.06-39.54L40.68-9.18L40.50-7.44L54.78-39.54L63-39.54L43.80 0L31.02 0L29.82-18.24L21.90 0L7.44 0L5.64-28.80L5.64-28.80Q5.46-32.04 4.59-34.17L4.59-34.17L4.59-34.17Q3.72-36.30 2.52-37.20ZM83.70-10.14L83.70-10.14L83.70-10.14Q85.20-9.12 85.20-6.87L85.20-6.87L85.20-6.87Q85.20-4.62 84.06-3.18L84.06-3.18L84.06-3.18Q82.92-1.74 81.06-0.78L81.06-0.78L81.06-0.78Q77.22 1.20 73.08 1.20L73.08 1.20L73.08 1.20Q68.94 1.20 66.51 0.30L66.51 0.30L66.51 0.30Q64.08-0.60 62.46-2.28L62.46-2.28L62.46-2.28Q59.28-5.46 59.28-11.28L59.28-11.28L59.28-11.28Q59.28-20.34 64.20-25.86L64.20-25.86L64.20-25.86Q69.48-31.80 78.66-31.80L78.66-31.80L78.66-31.80Q84.36-31.80 87.18-29.40L87.18-29.40L87.18-29.40Q89.28-27.60 89.28-24.66L89.28-24.66L89.28-24.66Q89.28-14.10 71.04-14.10L71.04-14.10L71.04-14.10Q70.80-12.54 70.80-11.22L70.80-11.22L70.80-11.22Q70.80-8.46 72.03-7.41L72.03-7.41L72.03-7.41Q73.26-6.36 75.54-6.36L75.54-6.36L75.54-6.36Q77.82-6.36 80.25-7.41L80.25-7.41L80.25-7.41Q82.68-8.46 83.70-10.14ZM71.46-16.68L71.46-16.68L71.46-16.68Q75.72-16.68 78.18-19.32L78.18-19.32L78.18-19.32Q80.64-21.84 80.64-25.86L80.64-25.86L80.64-25.86Q80.64-27.24 80.13-27.99L80.13-27.99L80.13-27.99Q79.62-28.74 78.60-28.74L78.60-28.74L78.60-28.74Q77.58-28.74 76.71-28.35L76.71-28.35L76.71-28.35Q75.84-27.96 74.94-26.64L74.94-26.64L74.94-26.64Q72.72-23.64 71.46-16.68ZM90.54-2.88L90.54-2.88L97.98-42L110.16-43.20L108.30-34.02L108.30-34.02Q107.64-31.20 106.80-29.22L106.80-29.22L106.80-29.22Q108.12-30.90 111-31.56L111-31.56L111-31.56Q111.84-31.80 112.86-31.80L112.86-31.80L112.86-31.80Q118.44-31.80 121.50-28.41L121.50-28.41L121.50-28.41Q124.56-25.02 124.56-18.48L124.56-18.48L124.56-18.48Q124.56-9.96 119.70-4.62L119.70-4.62L119.70-4.62Q114.48 1.20 105 1.20L105 1.20L105 1.20Q98.46 1.20 93.54-0.96L93.54-0.96L93.54-0.96Q91.80-1.74 90.54-2.88ZM105.78-21L102.60-3.42L102.60-3.42Q103.86-2.34 105.42-2.34L105.42-2.34L105.42-2.34Q106.98-2.34 107.88-2.94L107.88-2.94L107.88-2.94Q108.78-3.54 109.44-4.74L109.44-4.74L109.44-4.74Q111.24-7.98 112.68-17.88L112.68-17.88L112.68-17.88Q113.10-20.70 113.10-23.52L113.10-23.52L113.10-23.52Q113.10-26.34 112.47-27.24L112.47-27.24L112.47-27.24Q111.84-28.14 110.64-28.14L110.64-28.14L110.64-28.14Q106.98-28.14 105.78-21L105.78-21ZM146.28 0.78L147.60-3.60L147.60-3.60Q149.70-2.46 152.82-2.46L152.82-2.46L152.82-2.46Q155.94-2.46 158.55-4.35L158.55-4.35L158.55-4.35Q161.16-6.24 163.02-9.72L163.02-9.72L163.02-9.72Q166.86-17.10 166.86-28.98L166.86-28.98L166.86-28.98Q166.86-36.54 163.44-36.54L163.44-36.54L163.44-36.54Q161.64-36.54 159.90-34.56L159.90-34.56L159.90-34.56Q158.16-32.58 156.78-29.40L156.78-29.40L156.78-29.40Q153.78-22.14 153.78-13.62L153.78-13.62L153.78-13.62Q153.78-11.88 154.62-10.83L154.62-10.83L154.62-10.83Q155.46-9.78 156.96-9.78L156.96-9.78L156.96-9.78Q156.72-7.92 155.10-6.60L155.10-6.60L155.10-6.60Q153.48-5.28 151.44-5.28L151.44-5.28L151.44-5.28Q146.58-5.28 144.09-8.31L144.09-8.31L144.09-8.31Q141.60-11.34 141.60-16.83L141.60-16.83L141.60-16.83Q141.60-22.32 143.28-26.64L143.28-26.64L143.28-26.64Q144.96-30.96 147.90-34.11L147.90-34.11L147.90-34.11Q150.84-37.26 154.89-39.06L154.89-39.06L154.89-39.06Q158.94-40.86 163.74-40.86L163.74-40.86L163.74-40.86Q179.82-40.86 179.82-25.20L179.82-25.20L179.82-25.20Q179.82-13.92 174.42-7.02L174.42-7.02L174.42-7.02Q169.02-0.06 159.66 0.78L159.66 0.78L159.66 0.78Q165.18 1.98 170.76 1.98L170.76 1.98L170.76 1.98Q175.14 1.98 178.38 0.12L178.38 0.12L178.38 0.12Q179.28-0.42 179.64-1.02L179.64-1.02L179.64-1.02Q181.44 0.60 181.44 3.81L181.44 3.81L181.44 3.81Q181.44 7.02 178.59 8.88L178.59 8.88L178.59 8.88Q175.74 10.74 170.19 10.74L170.19 10.74L170.19 10.74Q164.64 10.74 158.22 8.16L158.22 8.16L158.22 8.16Q151.80 5.58 146.28 0.78L146.28 0.78ZM201.96-2.52L201.96-2.52L201.96-2.52Q199.08 1.20 191.94 1.20L191.94 1.20L191.94 1.20Q188.22 1.20 185.52-1.05L185.52-1.05L185.52-1.05Q182.82-3.30 182.82-6.54L182.82-6.54L182.82-6.54Q182.82-8.34 183-9.24L183-9.24L187.02-30.60L199.20-31.80L194.82-8.64L194.82-8.64Q194.58-7.32 194.58-6.54L194.58-6.54L194.58-6.54Q194.58-3.06 196.68-3.06L196.68-3.06L196.68-3.06Q199.02-3.06 200.70-6.24L200.70-6.24L200.70-6.24Q201.24-7.26 201.48-8.58L201.48-8.58L205.74-30.60L217.56-31.80L213.12-8.40L213.12-8.40Q212.94-7.50 212.94-6.54L212.94-6.54L212.94-6.54Q212.94-5.58 213.48-4.53L213.48-4.53L213.48-4.53Q214.02-3.48 215.76-3.24L215.76-3.24L215.76-3.24Q215.40-1.80 214.14-0.84L214.14-0.84L214.14-0.84Q211.50 1.20 208.65 1.20L208.65 1.20L208.65 1.20Q205.80 1.20 204.12 0.18L204.12 0.18L204.12 0.18Q202.44-0.84 201.96-2.52ZM235.20-3.30L235.20-3.30L235.20-3.30Q233.34 1.20 227.40 1.20L227.40 1.20L227.40 1.20Q224.34 1.20 222.42-0.90L222.42-0.90L222.42-0.90Q220.80-2.76 220.80-4.62L220.80-4.62L220.80-4.62Q220.80-9.48 223.02-18.96L223.02-18.96L225.24-30.60L237.42-31.80L233.76-12.84L233.76-12.84Q232.74-8.40 232.74-6.84L232.74-6.84L232.74-6.84Q232.74-3.42 235.20-3.30ZM226.32-38.94L226.32-38.94L226.32-38.94Q226.32-41.28 228.27-42.54L228.27-42.54L228.27-42.54Q230.22-43.80 233.04-43.80L233.04-43.80L233.04-43.80Q235.86-43.80 237.57-42.54L237.57-42.54L237.57-42.54Q239.28-41.28 239.28-38.94L239.28-38.94L239.28-38.94Q239.28-36.60 237.39-35.40L237.39-35.40L237.39-35.40Q235.50-34.20 232.68-34.20L232.68-34.20L232.68-34.20Q229.86-34.20 228.09-35.40L228.09-35.40L228.09-35.40Q226.32-36.60 226.32-38.94ZM251.85 0.60L251.85 0.60L251.85 0.60Q249 0 247.53-0.27L247.53-0.27L247.53-0.27Q246.06-0.54 244.35-0.54L244.35-0.54L244.35-0.54Q242.64-0.54 240.96 0.06L240.96 0.06L240.96 0.06Q240.06-0.48 239.49-1.56L239.49-1.56L239.49-1.56Q238.92-2.64 238.92-4.32L238.92-4.32L238.92-4.32Q238.92-7.86 242.52-10.56L242.52-10.56L257.76-21.54L257.76-21.54Q253.50-22.74 249.63-22.74L249.63-22.74L249.63-22.74Q245.76-22.74 244.38-20.10L244.38-20.10L244.38-20.10Q242.34-22.50 242.34-26.28L242.34-26.28L242.34-26.28Q242.34-28.80 244.17-30.45L244.17-30.45L244.17-30.45Q246-32.10 249.84-32.10L249.84-32.10L249.84-32.10Q252-32.10 253.95-31.83L253.95-31.83L253.95-31.83Q255.90-31.56 257.64-31.32L257.64-31.32L260.88-30.84L260.88-30.84Q262.44-30.60 264.03-30.60L264.03-30.60L264.03-30.60Q265.62-30.60 266.82-31.26L266.82-31.26L266.82-31.26Q268.38-29.82 268.38-27.84L268.38-27.84L268.38-27.84Q268.38-24.72 264.54-21.48L264.54-21.48L249.36-10.14L249.36-10.14Q254.04-8.76 256.44-8.76L256.44-8.76L256.44-8.76Q261.48-8.76 263.64-11.16L263.64-11.16L263.64-11.16Q265.32-9.24 265.32-5.91L265.32-5.91L265.32-5.91Q265.32-2.58 263.16-0.69L263.16-0.69L263.16-0.69Q261 1.20 257.10 1.20L257.10 1.20L257.10 1.20Q254.70 1.20 251.85 0.60Z" fill="url(#editing-shadow-gradient1)"></path></g></g></g></g><g><g transform="translate(-135.45000791549683, 27.270000457763672)"><path d="M2.52-37.20L2.52-37.20L2.52-37.20Q3.36-38.88 5.19-39.81L5.19-39.81L5.19-39.81Q7.02-40.74 9.54-40.74L9.54-40.74L9.54-40.74Q13.50-40.74 15.87-37.89L15.87-37.89L15.87-37.89Q18.24-35.04 18.24-28.80L18.24-28.80L18.24-7.38L31.98-39.54L39.06-39.54L40.68-9.18L40.50-7.44L54.78-39.54L63-39.54L43.80 0L31.02 0L29.82-18.24L21.90 0L7.44 0L5.64-28.80L5.64-28.80Q5.46-32.04 4.59-34.17L4.59-34.17L4.59-34.17Q3.72-36.30 2.52-37.20ZM83.70-10.14L83.70-10.14L83.70-10.14Q85.20-9.12 85.20-6.87L85.20-6.87L85.20-6.87Q85.20-4.62 84.06-3.18L84.06-3.18L84.06-3.18Q82.92-1.74 81.06-0.78L81.06-0.78L81.06-0.78Q77.22 1.20 73.08 1.20L73.08 1.20L73.08 1.20Q68.94 1.20 66.51 0.30L66.51 0.30L66.51 0.30Q64.08-0.60 62.46-2.28L62.46-2.28L62.46-2.28Q59.28-5.46 59.28-11.28L59.28-11.28L59.28-11.28Q59.28-20.34 64.20-25.86L64.20-25.86L64.20-25.86Q69.48-31.80 78.66-31.80L78.66-31.80L78.66-31.80Q84.36-31.80 87.18-29.40L87.18-29.40L87.18-29.40Q89.28-27.60 89.28-24.66L89.28-24.66L89.28-24.66Q89.28-14.10 71.04-14.10L71.04-14.10L71.04-14.10Q70.80-12.54 70.80-11.22L70.80-11.22L70.80-11.22Q70.80-8.46 72.03-7.41L72.03-7.41L72.03-7.41Q73.26-6.36 75.54-6.36L75.54-6.36L75.54-6.36Q77.82-6.36 80.25-7.41L80.25-7.41L80.25-7.41Q82.68-8.46 83.70-10.14ZM71.46-16.68L71.46-16.68L71.46-16.68Q75.72-16.68 78.18-19.32L78.18-19.32L78.18-19.32Q80.64-21.84 80.64-25.86L80.64-25.86L80.64-25.86Q80.64-27.24 80.13-27.99L80.13-27.99L80.13-27.99Q79.62-28.74 78.60-28.74L78.60-28.74L78.60-28.74Q77.58-28.74 76.71-28.35L76.71-28.35L76.71-28.35Q75.84-27.96 74.94-26.64L74.94-26.64L74.94-26.64Q72.72-23.64 71.46-16.68ZM90.54-2.88L90.54-2.88L97.98-42L110.16-43.20L108.30-34.02L108.30-34.02Q107.64-31.20 106.80-29.22L106.80-29.22L106.80-29.22Q108.12-30.90 111-31.56L111-31.56L111-31.56Q111.84-31.80 112.86-31.80L112.86-31.80L112.86-31.80Q118.44-31.80 121.50-28.41L121.50-28.41L121.50-28.41Q124.56-25.02 124.56-18.48L124.56-18.48L124.56-18.48Q124.56-9.96 119.70-4.62L119.70-4.62L119.70-4.62Q114.48 1.20 105 1.20L105 1.20L105 1.20Q98.46 1.20 93.54-0.96L93.54-0.96L93.54-0.96Q91.80-1.74 90.54-2.88ZM105.78-21L102.60-3.42L102.60-3.42Q103.86-2.34 105.42-2.34L105.42-2.34L105.42-2.34Q106.98-2.34 107.88-2.94L107.88-2.94L107.88-2.94Q108.78-3.54 109.44-4.74L109.44-4.74L109.44-4.74Q111.24-7.98 112.68-17.88L112.68-17.88L112.68-17.88Q113.10-20.70 113.10-23.52L113.10-23.52L113.10-23.52Q113.10-26.34 112.47-27.24L112.47-27.24L112.47-27.24Q111.84-28.14 110.64-28.14L110.64-28.14L110.64-28.14Q106.98-28.14 105.78-21L105.78-21ZM146.28 0.78L147.60-3.60L147.60-3.60Q149.70-2.46 152.82-2.46L152.82-2.46L152.82-2.46Q155.94-2.46 158.55-4.35L158.55-4.35L158.55-4.35Q161.16-6.24 163.02-9.72L163.02-9.72L163.02-9.72Q166.86-17.10 166.86-28.98L166.86-28.98L166.86-28.98Q166.86-36.54 163.44-36.54L163.44-36.54L163.44-36.54Q161.64-36.54 159.90-34.56L159.90-34.56L159.90-34.56Q158.16-32.58 156.78-29.40L156.78-29.40L156.78-29.40Q153.78-22.14 153.78-13.62L153.78-13.62L153.78-13.62Q153.78-11.88 154.62-10.83L154.62-10.83L154.62-10.83Q155.46-9.78 156.96-9.78L156.96-9.78L156.96-9.78Q156.72-7.92 155.10-6.60L155.10-6.60L155.10-6.60Q153.48-5.28 151.44-5.28L151.44-5.28L151.44-5.28Q146.58-5.28 144.09-8.31L144.09-8.31L144.09-8.31Q141.60-11.34 141.60-16.83L141.60-16.83L141.60-16.83Q141.60-22.32 143.28-26.64L143.28-26.64L143.28-26.64Q144.96-30.96 147.90-34.11L147.90-34.11L147.90-34.11Q150.84-37.26 154.89-39.06L154.89-39.06L154.89-39.06Q158.94-40.86 163.74-40.86L163.74-40.86L163.74-40.86Q179.82-40.86 179.82-25.20L179.82-25.20L179.82-25.20Q179.82-13.92 174.42-7.02L174.42-7.02L174.42-7.02Q169.02-0.06 159.66 0.78L159.66 0.78L159.66 0.78Q165.18 1.98 170.76 1.98L170.76 1.98L170.76 1.98Q175.14 1.98 178.38 0.12L178.38 0.12L178.38 0.12Q179.28-0.42 179.64-1.02L179.64-1.02L179.64-1.02Q181.44 0.60 181.44 3.81L181.44 3.81L181.44 3.81Q181.44 7.02 178.59 8.88L178.59 8.88L178.59 8.88Q175.74 10.74 170.19 10.74L170.19 10.74L170.19 10.74Q164.64 10.74 158.22 8.16L158.22 8.16L158.22 8.16Q151.80 5.58 146.28 0.78L146.28 0.78ZM201.96-2.52L201.96-2.52L201.96-2.52Q199.08 1.20 191.94 1.20L191.94 1.20L191.94 1.20Q188.22 1.20 185.52-1.05L185.52-1.05L185.52-1.05Q182.82-3.30 182.82-6.54L182.82-6.54L182.82-6.54Q182.82-8.34 183-9.24L183-9.24L187.02-30.60L199.20-31.80L194.82-8.64L194.82-8.64Q194.58-7.32 194.58-6.54L194.58-6.54L194.58-6.54Q194.58-3.06 196.68-3.06L196.68-3.06L196.68-3.06Q199.02-3.06 200.70-6.24L200.70-6.24L200.70-6.24Q201.24-7.26 201.48-8.58L201.48-8.58L205.74-30.60L217.56-31.80L213.12-8.40L213.12-8.40Q212.94-7.50 212.94-6.54L212.94-6.54L212.94-6.54Q212.94-5.58 213.48-4.53L213.48-4.53L213.48-4.53Q214.02-3.48 215.76-3.24L215.76-3.24L215.76-3.24Q215.40-1.80 214.14-0.84L214.14-0.84L214.14-0.84Q211.50 1.20 208.65 1.20L208.65 1.20L208.65 1.20Q205.80 1.20 204.12 0.18L204.12 0.18L204.12 0.18Q202.44-0.84 201.96-2.52ZM235.20-3.30L235.20-3.30L235.20-3.30Q233.34 1.20 227.40 1.20L227.40 1.20L227.40 1.20Q224.34 1.20 222.42-0.90L222.42-0.90L222.42-0.90Q220.80-2.76 220.80-4.62L220.80-4.62L220.80-4.62Q220.80-9.48 223.02-18.96L223.02-18.96L225.24-30.60L237.42-31.80L233.76-12.84L233.76-12.84Q232.74-8.40 232.74-6.84L232.74-6.84L232.74-6.84Q232.74-3.42 235.20-3.30ZM226.32-38.94L226.32-38.94L226.32-38.94Q226.32-41.28 228.27-42.54L228.27-42.54L228.27-42.54Q230.22-43.80 233.04-43.80L233.04-43.80L233.04-43.80Q235.86-43.80 237.57-42.54L237.57-42.54L237.57-42.54Q239.28-41.28 239.28-38.94L239.28-38.94L239.28-38.94Q239.28-36.60 237.39-35.40L237.39-35.40L237.39-35.40Q235.50-34.20 232.68-34.20L232.68-34.20L232.68-34.20Q229.86-34.20 228.09-35.40L228.09-35.40L228.09-35.40Q226.32-36.60 226.32-38.94ZM251.85 0.60L251.85 0.60L251.85 0.60Q249 0 247.53-0.27L247.53-0.27L247.53-0.27Q246.06-0.54 244.35-0.54L244.35-0.54L244.35-0.54Q242.64-0.54 240.96 0.06L240.96 0.06L240.96 0.06Q240.06-0.48 239.49-1.56L239.49-1.56L239.49-1.56Q238.92-2.64 238.92-4.32L238.92-4.32L238.92-4.32Q238.92-7.86 242.52-10.56L242.52-10.56L257.76-21.54L257.76-21.54Q253.50-22.74 249.63-22.74L249.63-22.74L249.63-22.74Q245.76-22.74 244.38-20.10L244.38-20.10L244.38-20.10Q242.34-22.50 242.34-26.28L242.34-26.28L242.34-26.28Q242.34-28.80 244.17-30.45L244.17-30.45L244.17-30.45Q246-32.10 249.84-32.10L249.84-32.10L249.84-32.10Q252-32.10 253.95-31.83L253.95-31.83L253.95-31.83Q255.90-31.56 257.64-31.32L257.64-31.32L260.88-30.84L260.88-30.84Q262.44-30.60 264.03-30.60L264.03-30.60L264.03-30.60Q265.62-30.60 266.82-31.26L266.82-31.26L266.82-31.26Q268.38-29.82 268.38-27.84L268.38-27.84L268.38-27.84Q268.38-24.72 264.54-21.48L264.54-21.48L249.36-10.14L249.36-10.14Q254.04-8.76 256.44-8.76L256.44-8.76L256.44-8.76Q261.48-8.76 263.64-11.16L263.64-11.16L263.64-11.16Q265.32-9.24 265.32-5.91L265.32-5.91L265.32-5.91Q265.32-2.58 263.16-0.69L263.16-0.69L263.16-0.69Q261 1.20 257.10 1.20L257.10 1.20L257.10 1.20Q254.70 1.20 251.85 0.60Z" fill="url(#editing-shadow-gradient2)"></path></g></g></g><style>text {
  font-size: 64px;
  font-family: Monospace;
  dominant-baseline: central;
  text-anchor: middle;
}</style></svg>